<svg width="622" height="556" viewBox="0 0 622 556" fill="none" xmlns="http://www.w3.org/2000/svg">
<path d="M536.413 62.8154C525.953 57.0966 521.209 61.8595 517.404 57.0966C513.599 52.3337 527.864 39.9733 499.284 27.6128C499.284 27.6128 497.389 0.98012 458.399 0.0242447C419.408 -0.931631 429.917 26.6569 419.457 33.3151C408.997 39.9732 406.147 29.574 395.687 36.1662C385.227 42.7585 389.988 56.1407 381.438 58.036C372.889 59.9313 361.457 49.4826 350.997 56.1407C340.537 62.7989 340.537 68.5012 335.793 68.5012C331.049 68.5012 321.527 64.6942 315.828 68.5012C310.128 72.3082 303.457 77.0711 303.457 77.0711H543.958C543.958 77.0711 546.873 68.5177 536.413 62.8154Z" fill="#C147E9"/>
<path opacity="0.5" d="M536.413 62.8154C525.953 57.0966 521.209 61.8595 517.404 57.0966C513.599 52.3337 527.864 39.9733 499.284 27.6128C499.284 27.6128 497.389 0.98012 458.399 0.0242447C419.408 -0.931631 429.917 26.6569 419.457 33.3151C408.997 39.9732 406.147 29.574 395.687 36.1662C385.227 42.7585 389.988 56.1407 381.438 58.036C372.889 59.9313 361.457 49.4826 350.997 56.1407C340.537 62.7989 340.537 68.5012 335.793 68.5012C331.049 68.5012 321.527 64.6942 315.828 68.5012C310.128 72.3082 303.457 77.0711 303.457 77.0711H543.958C543.958 77.0711 546.873 68.5177 536.413 62.8154Z" fill="white"/>
<path d="M263.675 276.618C256.328 272.614 252.984 275.943 250.316 272.614C247.647 269.285 257.663 260.583 237.632 251.897C237.632 251.897 236.298 233.192 208.904 232.516C181.51 231.841 188.873 251.222 181.526 255.902C174.179 260.583 172.186 253.232 164.839 257.913C157.493 262.593 160.82 271.938 154.824 273.273C148.828 274.608 140.789 267.257 133.41 271.938C126.03 276.618 126.063 280.623 122.735 280.623C119.408 280.623 112.703 277.953 108.701 280.623C104.698 283.293 100.019 286.639 100.019 286.639H269.012C269.012 286.639 271.022 280.623 263.675 276.618Z" fill="white"/>
<path opacity="0.5" d="M263.675 276.618C256.328 272.614 252.984 275.943 250.316 272.614C247.647 269.285 257.663 260.583 237.632 251.897C237.632 251.897 236.298 233.192 208.904 232.516C181.51 231.841 188.873 251.222 181.526 255.902C174.179 260.583 172.186 253.232 164.839 257.913C157.493 262.593 160.82 271.938 154.824 273.273C148.828 274.608 140.789 267.257 133.41 271.938C126.03 276.618 126.063 280.623 122.735 280.623C119.408 280.623 112.703 277.953 108.701 280.623C104.698 283.293 100.019 286.639 100.019 286.639H269.012C269.012 286.639 271.022 280.623 263.675 276.618Z" fill="white"/>
<path d="M472.532 555.091H576.639C574.646 542.352 566.459 544.593 565.372 524.849C564.828 514.961 574.036 502.601 573.229 489.548C572.57 478.786 561.979 467.76 561.155 455.449C560.414 444.342 569.391 432.014 568.584 420.049C567.744 408.743 557.053 397.883 556.048 386.116C555.126 374.579 563.988 362.202 562.934 350.6C561.88 338.997 550.958 328.334 549.756 316.897C548.553 305.146 557.136 292.489 555.818 281.249C554.434 269.301 543.167 258.984 541.635 247.975C539.988 235.73 547.911 222.644 546.049 212.064C543.76 199.11 531.702 189.733 529.165 180.174C524.437 162.358 525.03 145.202 519.446 144.081C513.499 142.895 512.132 159.721 507.619 178.526C505.346 187.969 493.568 197.544 491.624 210.515C490.059 221.013 498.394 233.785 497.027 245.981C495.808 256.907 484.821 267.406 483.75 279.288C482.745 290.462 491.657 302.773 490.784 314.458C489.927 325.813 479.253 336.641 478.544 348.177C477.836 359.714 486.995 371.777 486.369 383.165C485.727 394.834 475.266 405.859 474.723 417.083C474.163 428.965 483.536 440.947 483.074 451.956C482.564 464.168 472.252 475.342 471.873 486.021C471.412 498.975 480.917 510.923 480.62 520.795C479.994 542.22 470.193 537.754 469.847 554.992L472.532 555.091Z" fill="#C147E9"/>
<path d="M517.222 178.312V550.279" stroke="black" stroke-miterlimit="10"/>
<path d="M533.481 217.305L516.531 231.956L502.661 213.448" stroke="black" stroke-miterlimit="10"/>
<path d="M533.481 282.057L516.531 296.692L502.661 278.201" stroke="black" stroke-miterlimit="10"/>
<path d="M533.481 342.936L516.531 357.588L502.661 339.08" stroke="black" stroke-miterlimit="10"/>
<path d="M533.481 415.402L516.531 430.037L502.661 411.545" stroke="black" stroke-miterlimit="10"/>
<path d="M533.481 488.625L516.531 503.26L502.661 484.769" stroke="black" stroke-miterlimit="10"/>
<path d="M401.617 555.091H481.987C480.439 545.203 474.13 546.983 473.29 531.755C472.861 524.075 479.961 514.582 479.352 504.496C478.841 496.255 470.671 487.669 470.028 478.127C469.452 469.557 476.436 459.998 475.761 450.802C475.118 442.067 466.832 433.695 466.091 424.614C465.35 415.533 472.219 406.139 471.412 397.19C470.605 388.241 462.154 380.001 461.265 371.184C460.342 362.103 466.964 352.347 465.943 343.645C464.872 334.432 456.175 326.472 455.005 317.985C453.687 308.525 459.848 298.422 458.398 290.264C456.636 280.26 447.329 273.009 445.385 265.642C441.728 251.897 442.189 238.63 437.873 237.773C433.278 236.851 432.223 249.837 428.748 264.373C427.002 271.658 417.892 279.057 416.393 289.094C415.191 297.203 421.615 307.058 420.561 316.468C419.622 324.906 411.155 332.949 410.315 342.178C409.541 350.797 416.426 360.307 415.751 369.322C415.092 378.089 406.872 386.445 406.295 395.345C405.719 404.244 412.884 413.572 412.341 422.356C411.797 431.14 403.775 439.875 403.363 448.544C402.919 457.707 410.15 466.953 409.804 475.457C409.409 484.884 401.452 493.586 401.156 501.826C400.794 511.813 408.14 521.059 407.91 528.656C407.416 545.137 399.855 541.758 399.591 555.025L401.617 555.091Z" fill="#C147E9"/>
<path d="M436.128 264.258V551.384" stroke="black" stroke-miterlimit="10"/>
<path d="M448.663 294.351L435.584 305.657L424.877 291.368" stroke="black" stroke-miterlimit="10"/>
<path d="M448.663 344.321L435.584 355.626L424.877 341.354" stroke="black" stroke-miterlimit="10"/>
<path d="M448.663 391.324L435.584 402.629L424.877 388.357" stroke="black" stroke-miterlimit="10"/>
<path d="M448.663 447.259L435.584 458.565L424.877 444.276" stroke="black" stroke-miterlimit="10"/>
<path d="M448.663 503.787L435.584 515.076L424.877 500.804" stroke="black" stroke-miterlimit="10"/>
<path d="M329.978 554.317V221.112H347.554V554.317" fill="#2E353A"/>
<path d="M329.978 554.317V221.112H347.554V554.317" stroke="#2E353A" stroke-linecap="round" stroke-linejoin="round"/>
<path d="M321.198 554.317V221.112H338.774V554.317" fill="#C147E9"/>
<path d="M321.198 554.317V221.112H338.774V554.317" stroke="#2E353A" stroke-linecap="round" stroke-linejoin="round"/>
<g style="mix-blend-mode:multiply" opacity="0.3">
<path d="M338.774 221.112H321.198V260.665H338.774V221.112Z" fill="#2E353A"/>
</g>
<path d="M396.198 91.0303H265.965L322.73 230.522H452.979V147.822C452.979 140.363 451.51 132.977 448.657 126.085C445.803 119.194 441.62 112.932 436.347 107.659C431.074 102.385 424.815 98.2017 417.926 95.3486C411.037 92.4955 403.654 91.0281 396.198 91.0303Z" fill="#C147E9" stroke="#2E353A" stroke-linecap="round" stroke-linejoin="round"/>
<g style="mix-blend-mode:multiply" opacity="0.3">
<path d="M312.797 206.098L322.68 230.522H452.979V147.822C452.979 146.57 452.979 145.317 452.847 144.081H312.83L312.797 206.098Z" fill="black"/>
</g>
<path d="M395.242 144.081H381.537" stroke="#2E353A" stroke-linecap="round" stroke-linejoin="round"/>
<path d="M452.847 144.081H411.369" stroke="#2E353A" stroke-linecap="round" stroke-linejoin="round"/>
<path d="M265.965 91.0303C281.024 91.0303 295.467 97.0155 306.115 107.669C316.764 118.323 322.746 132.772 322.746 147.839V230.539H209.184V147.822C209.188 132.759 215.172 118.313 225.82 107.663C236.469 97.0132 250.909 91.0303 265.965 91.0303Z" fill="#2E353A" stroke="#2E353A" stroke-linecap="round" stroke-linejoin="round"/>
<path d="M322.73 221.112H224.882V230.522H322.73V221.112Z" fill="#C147E9" stroke="#2E353A" stroke-linecap="round" stroke-linejoin="round"/>
<path d="M322.73 221.112H120.231V230.522H322.73V221.112Z" fill="#C147E9" stroke="#2E353A" stroke-linecap="round" stroke-linejoin="round"/>
<path opacity="0.3" d="M322.73 221.112H224.882V230.522H322.73V221.112Z" fill="black"/>
<path d="M404.665 57.4097H364.027V85.9706H404.665V57.4097Z" fill="#2E353A" stroke="#2E353A" stroke-linecap="round" stroke-linejoin="round"/>
<path d="M367.321 57.4097H358.541V146.405H367.321V57.4097Z" fill="white" stroke="#2E353A" stroke-linecap="round" stroke-linejoin="round"/>
<path d="M362.923 158.485C368.381 158.485 372.806 154.058 372.806 148.597C372.806 143.136 368.381 138.708 362.923 138.708C357.464 138.708 353.039 143.136 353.039 148.597C353.039 154.058 357.464 158.485 362.923 158.485Z" fill="#2E353A" stroke="#2E353A" stroke-linecap="round" stroke-linejoin="round"/>
<path d="M217.98 113.872C240.91 125.524 280.774 144.197 317.541 153.591" stroke="white" stroke-linecap="round" stroke-linejoin="round" stroke-dasharray="2 4"/>
<path d="M198.74 103.736C198.74 103.736 206.087 107.889 217.98 113.938" stroke="#2E353A" stroke-linecap="round" stroke-linejoin="round" stroke-dasharray="2 4"/>
<path d="M190.487 103.127L206.976 63.9362L87.4014 34.749L190.487 103.127Z" fill="white" stroke="#2E353A" stroke-width="1.2629" stroke-linecap="round" stroke-linejoin="round"/>
<path d="M198.526 68.6826L190.487 103.127L87.4014 34.749L198.526 68.6826Z" fill="#C147E9" stroke="#2E353A" stroke-width="1.2629" stroke-linecap="round" stroke-linejoin="round"/>
<path d="M198.526 68.6826L179.764 84.7677L87.4014 34.749L198.526 68.6826Z" fill="white" stroke="#2E353A" stroke-width="1.2629" stroke-linecap="round" stroke-linejoin="round"/>
<path d="M206.976 63.9362L223.68 57.1462L87.4014 34.749L206.976 63.9362Z" fill="white" stroke="#2E353A" stroke-width="1.2629" stroke-linecap="round" stroke-linejoin="round"/>
<path d="M167.261 97.0291L171.132 99.4023" stroke="#2E353A" stroke-linecap="round" stroke-linejoin="round"/>
<path d="M146.143 84.0754L159.107 92.0191" stroke="#2E353A" stroke-linecap="round" stroke-linejoin="round"/>
<path d="M131.581 178.147V135.643L253.116 155.189L131.581 178.147Z" fill="white" stroke="#2E353A" stroke-width="1.2629" stroke-linecap="round" stroke-linejoin="round"/>
<path d="M137.528 143.29L131.581 178.147L253.116 155.189L137.528 143.29Z" fill="#C147E9" stroke="#2E353A" stroke-width="1.2629" stroke-linecap="round" stroke-linejoin="round"/>
<path d="M137.528 143.29L148.581 165.391L253.116 155.189L137.528 143.29Z" fill="white" stroke="#2E353A" stroke-width="1.2629" stroke-linecap="round" stroke-linejoin="round"/>
<path d="M131.581 135.643L118.831 122.887L253.116 155.189L131.581 135.643Z" fill="white" stroke="#2E353A" stroke-width="1.2629" stroke-linecap="round" stroke-linejoin="round"/>
<path d="M175.102 177.356L185.644 175.213" stroke="#2E353A" stroke-linecap="round" stroke-linejoin="round"/>
<path d="M138.071 184.887L164.576 179.498" stroke="#2E353A" stroke-linecap="round" stroke-linejoin="round"/>
<path d="M116.937 175.526C116.937 175.526 21.3955 192.007 3.27561 277.706C-14.8443 363.405 80.6971 368.35 97.1697 327.148C113.642 285.946 41.1627 269.466 24.6901 309.019C8.2174 348.573 57.6354 416.143 125.173 419.439C181.296 422.175 338.642 356.632 436.506 340.069C436.506 340.069 508.986 319.995 621 324.396" stroke="#2E353A" stroke-linecap="round" stroke-linejoin="round" stroke-dasharray="2 4"/>
<path d="M588.598 444.16H616.058" stroke="#2E353A" stroke-linecap="round" stroke-linejoin="round"/>
<path d="M588.598 484.801H616.058" stroke="#2E353A" stroke-linecap="round" stroke-linejoin="round"/>
<path d="M10.4083 483.713H585.304V445.248H10.4083" fill="white"/>
<path d="M10.4083 483.713H585.304V445.248H10.4083" stroke="#2E353A" stroke-linecap="round" stroke-linejoin="round"/>
<path d="M50.3708 554.58V361.065C50.3711 360.59 50.4676 360.121 50.6545 359.684C50.8414 359.248 51.1147 358.854 51.458 358.527L66.4811 344.37C67.1576 343.737 68.0567 343.398 68.9825 343.425C69.9082 343.453 70.7855 343.846 71.4228 344.518L84.601 358.543C85.1988 359.196 85.5334 360.048 85.5399 360.933V554.58" fill="#2E353A"/>
<path d="M50.3708 554.58V361.065C50.3711 360.59 50.4676 360.121 50.6545 359.684C50.8414 359.248 51.1147 358.854 51.458 358.527L66.4811 344.37C67.1576 343.737 68.0567 343.398 68.9825 343.425C69.9082 343.453 70.7855 343.846 71.4228 344.518L84.601 358.543C85.1988 359.196 85.5334 360.048 85.5399 360.933V554.58" stroke="#2E353A" stroke-linecap="round" stroke-linejoin="round"/>
<path d="M46.1044 556.228V361.065C46.104 360.589 46.2017 360.118 46.3916 359.681C46.5815 359.244 46.8595 358.851 47.2081 358.527L62.2312 344.37C62.5651 344.055 62.958 343.808 63.3873 343.645C63.8165 343.482 64.2738 343.405 64.7328 343.419C65.1918 343.433 65.6436 343.537 66.0624 343.726C66.4811 343.914 66.8585 344.184 67.173 344.519L80.3511 358.543C80.9559 359.192 81.2915 360.046 81.29 360.933V556.228" fill="white"/>
<path d="M46.1044 556.228V361.065C46.104 360.589 46.2017 360.118 46.3916 359.681C46.5815 359.244 46.8595 358.851 47.2081 358.527L62.2312 344.37C62.5651 344.055 62.958 343.808 63.3873 343.645C63.8165 343.482 64.2738 343.405 64.7328 343.419C65.1918 343.433 65.6436 343.537 66.0624 343.726C66.4811 343.914 66.8585 344.184 67.173 344.519L80.3511 358.543C80.9559 359.192 81.2915 360.046 81.29 360.933V556.228" stroke="#2E353A" stroke-linecap="round" stroke-linejoin="round"/>
<path d="M177.046 554.58V361.065C177.046 360.59 177.142 360.121 177.329 359.685C177.516 359.248 177.789 358.855 178.133 358.527L193.172 344.37C193.506 344.055 193.899 343.808 194.328 343.645C194.758 343.482 195.215 343.405 195.674 343.419C196.133 343.433 196.585 343.537 197.003 343.726C197.422 343.914 197.8 344.184 198.114 344.519L211.292 358.543C211.897 359.192 212.233 360.046 212.231 360.933V554.58" fill="#2E353A"/>
<path d="M177.046 554.58V361.065C177.046 360.59 177.142 360.121 177.329 359.685C177.516 359.248 177.789 358.855 178.133 358.527L193.172 344.37C193.506 344.055 193.899 343.808 194.328 343.645C194.758 343.482 195.215 343.405 195.674 343.419C196.133 343.433 196.585 343.537 197.003 343.726C197.422 343.914 197.8 344.184 198.114 344.519L211.292 358.543C211.897 359.192 212.233 360.046 212.231 360.933V554.58" stroke="#2E353A" stroke-linecap="round" stroke-linejoin="round"/>
<path d="M173.488 556.228V361.065C173.487 360.589 173.585 360.117 173.775 359.681C173.965 359.244 174.243 358.851 174.591 358.527L189.614 344.37C190.291 343.737 191.19 343.398 192.116 343.425C193.041 343.453 193.919 343.846 194.556 344.518L207.734 358.543C208.344 359.19 208.685 360.044 208.69 360.933V556.228" fill="white"/>
<path d="M173.488 556.228V361.065C173.487 360.589 173.585 360.117 173.775 359.681C173.965 359.244 174.243 358.851 174.591 358.527L189.614 344.37C190.291 343.737 191.19 343.398 192.116 343.425C193.041 343.453 193.919 343.846 194.556 344.518L207.734 358.543C208.344 359.19 208.685 360.044 208.69 360.933V556.228" stroke="#2E353A" stroke-linecap="round" stroke-linejoin="round"/>
<path d="M304.429 554.58V361.065C304.428 360.589 304.526 360.117 304.716 359.681C304.906 359.244 305.184 358.851 305.532 358.527L320.555 344.37C321.232 343.737 322.131 343.398 323.057 343.425C323.983 343.453 324.86 343.846 325.497 344.518L338.675 358.543C339.285 359.19 339.626 360.044 339.631 360.933V556.228" fill="#2E353A"/>
<path d="M304.429 554.58V361.065C304.428 360.589 304.526 360.117 304.716 359.681C304.906 359.244 305.184 358.851 305.532 358.527L320.555 344.37C321.232 343.737 322.131 343.398 323.057 343.425C323.983 343.453 324.86 343.846 325.497 344.518L338.675 358.543C339.285 359.19 339.626 360.044 339.631 360.933V556.228" stroke="#2E353A" stroke-linecap="round" stroke-linejoin="round"/>
<path d="M300.887 556.228V361.065C300.887 360.59 300.984 360.121 301.171 359.685C301.358 359.248 301.631 358.855 301.974 358.527L317.014 344.37C317.348 344.055 317.741 343.808 318.17 343.645C318.599 343.482 319.056 343.405 319.515 343.419C319.974 343.433 320.426 343.537 320.845 343.726C321.264 343.914 321.641 344.184 321.955 344.519L335.134 358.543C335.738 359.192 336.074 360.046 336.073 360.933V556.228" fill="white"/>
<path d="M300.887 556.228V361.065C300.887 360.59 300.984 360.121 301.171 359.685C301.358 359.248 301.631 358.855 301.974 358.527L317.014 344.37C317.348 344.055 317.741 343.808 318.17 343.645C318.599 343.482 319.056 343.405 319.515 343.419C319.974 343.433 320.426 343.537 320.845 343.726C321.264 343.914 321.641 344.184 321.955 344.519L335.134 358.543C335.738 359.192 336.074 360.046 336.073 360.933V556.228" stroke="#2E353A" stroke-linecap="round" stroke-linejoin="round"/>
<path d="M431.828 554.58V361.065C431.828 360.59 431.925 360.121 432.112 359.684C432.299 359.248 432.572 358.854 432.915 358.527L447.938 344.37C448.615 343.737 449.514 343.398 450.44 343.425C451.366 343.453 452.243 343.846 452.88 344.518L466.058 358.543C466.656 359.196 466.991 360.048 466.997 360.933V554.58" fill="#2E353A"/>
<path d="M431.828 554.58V361.065C431.828 360.59 431.925 360.121 432.112 359.684C432.299 359.248 432.572 358.854 432.915 358.527L447.938 344.37C448.615 343.737 449.514 343.398 450.44 343.425C451.366 343.453 452.243 343.846 452.88 344.518L466.058 358.543C466.656 359.196 466.991 360.048 466.997 360.933V554.58" stroke="#2E353A" stroke-linecap="round" stroke-linejoin="round"/>
<path d="M428.27 556.228V361.065C428.27 360.589 428.367 360.118 428.557 359.681C428.747 359.244 429.025 358.851 429.374 358.527L444.397 344.37C444.731 344.055 445.124 343.808 445.553 343.645C445.982 343.482 446.439 343.405 446.898 343.419C447.357 343.433 447.809 343.537 448.228 343.726C448.647 343.914 449.024 344.184 449.339 344.519L462.517 358.543C463.121 359.192 463.457 360.046 463.456 360.933V556.228" fill="white"/>
<path d="M428.27 556.228V361.065C428.27 360.589 428.367 360.118 428.557 359.681C428.747 359.244 429.025 358.851 429.374 358.527L444.397 344.37C444.731 344.055 445.124 343.808 445.553 343.645C445.982 343.482 446.439 343.405 446.898 343.419C447.357 343.433 447.809 343.537 448.228 343.726C448.647 343.914 449.024 344.184 449.339 344.519L462.517 358.543C463.121 359.192 463.457 360.046 463.456 360.933V556.228" stroke="#2E353A" stroke-linecap="round" stroke-linejoin="round"/>
<path d="M559.211 554.58V361.065C559.211 360.59 559.308 360.121 559.495 359.685C559.682 359.248 559.955 358.855 560.298 358.527L575.338 344.37C575.672 344.055 576.065 343.808 576.494 343.645C576.923 343.482 577.38 343.405 577.839 343.419C578.298 343.433 578.75 343.537 579.169 343.726C579.588 343.914 579.965 344.184 580.279 344.519L593.458 358.543C594.062 359.192 594.398 360.046 594.397 360.933V554.58" fill="#2E353A"/>
<path d="M559.211 554.58V361.065C559.211 360.59 559.308 360.121 559.495 359.685C559.682 359.248 559.955 358.855 560.298 358.527L575.338 344.37C575.672 344.055 576.065 343.808 576.494 343.645C576.923 343.482 577.38 343.405 577.839 343.419C578.298 343.433 578.75 343.537 579.169 343.726C579.588 343.914 579.965 344.184 580.279 344.519L593.458 358.543C594.062 359.192 594.398 360.046 594.397 360.933V554.58" stroke="#2E353A" stroke-linecap="round" stroke-linejoin="round"/>
<path d="M555.653 556.228V361.065C555.653 360.589 555.75 360.117 555.94 359.681C556.13 359.244 556.408 358.851 556.757 358.527L571.78 344.37C572.456 343.737 573.356 343.398 574.281 343.425C575.207 343.453 576.084 343.846 576.722 344.518L589.9 358.543C590.509 359.19 590.851 360.044 590.855 360.933V556.228" fill="white"/>
<path d="M555.653 556.228V361.065C555.653 360.589 555.75 360.117 555.94 359.681C556.13 359.244 556.408 358.851 556.757 358.527L571.78 344.37C572.456 343.737 573.356 343.398 574.281 343.425C575.207 343.453 576.084 343.846 576.722 344.518L589.9 358.543C590.509 359.19 590.851 360.044 590.855 360.933V556.228" stroke="#2E353A" stroke-linecap="round" stroke-linejoin="round"/>
<path d="M67.1566 344.518V358.626" stroke="#2E353A" stroke-linecap="round" stroke-linejoin="round"/>
<path d="M72.8066 351.802V385.192" stroke="#2E353A" stroke-linecap="round" stroke-linejoin="round"/>
<path d="M180.422 354.538V396.778" stroke="#2E353A" stroke-linecap="round" stroke-linejoin="round"/>
<path d="M185.875 349.083V367.476" stroke="#2E353A" stroke-linecap="round" stroke-linejoin="round"/>
<path d="M317.014 344.37V385.885" stroke="#2E353A" stroke-linecap="round" stroke-linejoin="round"/>
<path d="M324.838 347.715V409.056" stroke="#2E353A" stroke-linecap="round" stroke-linejoin="round"/>
<path d="M434.497 354.538V400.865" stroke="#2E353A" stroke-linecap="round" stroke-linejoin="round"/>
<path d="M452.205 349.083V360.669" stroke="#2E353A" stroke-linecap="round" stroke-linejoin="round"/>
<path d="M567.316 348.391V372.931" stroke="#2E353A" stroke-linecap="round" stroke-linejoin="round"/>
<path d="M582.306 351.127V421.994" stroke="#2E353A" stroke-linecap="round" stroke-linejoin="round"/>
<path d="M555.06 454.707H540.07" stroke="#2E353A" stroke-linecap="round" stroke-linejoin="round"/>
<path d="M555.06 466.293H502.611" stroke="#2E353A" stroke-linecap="round" stroke-linejoin="round"/>
<path d="M359.563 466.293H335.727" stroke="#2E353A" stroke-linecap="round" stroke-linejoin="round"/>
<path d="M234.239 466.293H210.403" stroke="#2E353A" stroke-linecap="round" stroke-linejoin="round"/>
<path d="M45.5608 460.162H21.7249" stroke="#2E353A" stroke-linecap="round" stroke-linejoin="round"/>
<path d="M45.5609 471.056H36.0232" stroke="#2E353A" stroke-linecap="round" stroke-linejoin="round"/>
<path d="M347.307 460.162H335.727" stroke="#2E353A" stroke-linecap="round" stroke-linejoin="round"/>
<path d="M220.616 473.1H209.035" stroke="#2E353A" stroke-linecap="round" stroke-linejoin="round"/>
<path d="M172.252 473.1H160.672" stroke="#2E353A" stroke-linecap="round" stroke-linejoin="round"/>
<path d="M601.365 466.293H591.152" stroke="#2E353A" stroke-linecap="round" stroke-linejoin="round"/>
<path d="M614.987 466.293H608.86" stroke="#2E353A" stroke-linecap="round" stroke-linejoin="round"/>
<path d="M80.697 395.443C80.697 395.443 76.5789 430.86 71.6371 467.101C66.6953 503.342 75.7553 540.423 78.2261 543.719" stroke="#2E353A" stroke-linecap="round" stroke-linejoin="round"/>
<path d="M64.4056 467.134C65.1963 460.064 65.8552 455.597 65.8552 455.597" stroke="#2E353A" stroke-linecap="round" stroke-linejoin="round"/>
<path d="M76.5624 539.599C76.5624 539.599 61.737 536.303 61.737 509.934C61.737 499.106 62.4289 488.015 63.2525 478.621" stroke="#2E353A" stroke-linecap="round" stroke-linejoin="round"/>
<path d="M200.947 353.418C200.947 353.418 204.242 355.89 198.476 383.907C192.711 411.924 193.535 453.125 200.947 476.198" stroke="#2E353A" stroke-linecap="round" stroke-linejoin="round"/>
<path d="M209.184 405.332C209.184 405.332 200.947 430.053 206.713 464.662" stroke="#2E353A" stroke-linecap="round" stroke-linejoin="round"/>
<path d="M303.078 420.972C303.078 420.972 307.196 444.869 311.314 469.573C315.432 494.277 312.138 528.903 308.843 537.951C305.549 546.999 302.254 554.432 302.254 554.432" stroke="#2E353A" stroke-linecap="round" stroke-linejoin="round"/>
<path d="M318.595 542.318C314.922 553.591 310.359 540.423 310.359 540.423" stroke="#2E353A" stroke-linecap="round" stroke-linejoin="round"/>
<path d="M318.447 458.07C318.447 458.07 326.205 498.134 321.824 528.293" stroke="#2E353A" stroke-linecap="round" stroke-linejoin="round"/>
<path d="M301.431 471.254C301.431 471.254 309.667 488.559 302.254 505.039" stroke="#2E353A" stroke-linecap="round" stroke-linejoin="round"/>
<path d="M455.12 473.693C456.223 478.731 457.67 483.687 459.453 488.526" stroke="#2E353A" stroke-linecap="round" stroke-linejoin="round"/>
<path d="M461.924 388.027C456.697 404.625 453.381 421.766 452.04 439.117C451.548 447.895 452.04 456.701 453.506 465.37" stroke="#2E353A" stroke-linecap="round" stroke-linejoin="round"/>
<path d="M446.275 463.805C446.275 463.805 453.687 491.822 457.806 501.71C461.924 511.599 460.276 535.479 455.335 547.016" stroke="#2E353A" stroke-linecap="round" stroke-linejoin="round"/>
<path d="M557.432 400.387C557.432 400.387 573.905 430.053 558.256 478.654" stroke="#2E353A" stroke-linecap="round" stroke-linejoin="round"/>
<path d="M572.57 451.049C572.669 460.311 571.846 472.045 568.139 481.934C560.727 501.71 557.432 508.303 557.432 508.303" stroke="#2E353A" stroke-linecap="round" stroke-linejoin="round"/>
<path d="M571.434 434.997C571.434 434.997 571.978 438.54 572.307 443.995" stroke="#2E353A" stroke-linecap="round" stroke-linejoin="round"/>
</svg>
